<svg width="28" height="28" viewBox="0 0 28 28" fill="none" xmlns="http://www.w3.org/2000/svg">
<path d="M7.125 15.25L8.10557 17.2111C8.43743 17.8749 8.60337 18.2067 8.82504 18.4943C9.02174 18.7495 9.25051 18.9783 9.50569 19.175C9.79327 19.3966 10.1251 19.5626 10.7889 19.8944L12.75 20.875L10.7889 21.8556C10.1251 22.1874 9.79327 22.3534 9.50569 22.575C9.25051 22.7717 9.02174 23.0005 8.82504 23.2557C8.60337 23.5433 8.43743 23.8751 8.10557 24.5389L7.125 26.5L6.14443 24.5389C5.81257 23.8751 5.64663 23.5433 5.42496 23.2557C5.22826 23.0005 4.99949 22.7717 4.74431 22.575C4.45673 22.3534 4.12487 22.1874 3.46115 21.8556L1.5 20.875L3.46115 19.8944C4.12487 19.5626 4.45673 19.3966 4.74431 19.175C4.99949 18.9783 5.22826 18.7495 5.42496 18.4943C5.64663 18.2067 5.81257 17.8749 6.14443 17.2111L7.125 15.25Z" stroke="#D2D2D9" stroke-width="2" stroke-linecap="round" stroke-linejoin="round"/>
<path d="M17.75 1.5L19.2233 5.33052C19.5758 6.24706 19.752 6.70533 20.0261 7.0908C20.2691 7.43244 20.5676 7.73093 20.9092 7.97386C21.2947 8.24795 21.7529 8.42421 22.6695 8.77672L26.5 10.25L22.6695 11.7233C21.7529 12.0758 21.2947 12.252 20.9092 12.5261C20.5676 12.7691 20.2691 13.0676 20.0261 13.4092C19.7521 13.7947 19.5758 14.2529 19.2233 15.1695L17.75 19L16.2767 15.1695C15.9242 14.2529 15.748 13.7947 15.4739 13.4092C15.2309 13.0676 14.9324 12.7691 14.5908 12.5261C14.2053 12.252 13.7471 12.0758 12.8305 11.7233L9 10.25L12.8305 8.77672C13.7471 8.42421 14.2053 8.24795 14.5908 7.97386C14.9324 7.73093 15.2309 7.43244 15.4739 7.0908C15.748 6.70533 15.9242 6.24706 16.2767 5.33052L17.75 1.5Z" stroke="#D2D2D9" stroke-width="2" stroke-linecap="round" stroke-linejoin="round"/>
</svg>
