<svg viewBox="0 0 26 28" fill="none" xmlns="http://www.w3.org/2000/svg">
<path d="M24.25 11.1772H1.75M18 1.17725V6.17725M8 1.17725V6.17725M7.75 26.1772H18.25C20.3502 26.1772 21.4003 26.1772 22.2025 25.7685C22.9081 25.409 23.4817 24.8353 23.8413 24.1297C24.25 23.3275 24.25 22.2774 24.25 20.1772V9.67725C24.25 7.57705 24.25 6.52695 23.8413 5.72478C23.4817 5.01917 22.9081 4.4455 22.2025 4.08597C21.4003 3.67725 20.3502 3.67725 18.25 3.67725H7.75C5.6498 3.67725 4.5997 3.67725 3.79754 4.08597C3.09193 4.4455 2.51825 5.01917 2.15873 5.72478C1.75 6.52695 1.75 7.57705 1.75 9.67725V20.1772C1.75 22.2774 1.75 23.3275 2.15873 24.1297C2.51825 24.8353 3.09193 25.409 3.79754 25.7685C4.5997 26.1772 5.6498 26.1772 7.75 26.1772Z" stroke-width="2" stroke-linecap="round" stroke-linejoin="round"/>
</svg>
