<svg width="" height="" viewBox="0 0 42 42" fill="none" xmlns="http://www.w3.org/2000/svg">
<path d="M28 7C29.6275 7 30.4412 7 31.1088 7.17889C32.9205 7.66434 34.3357 9.07947 34.8211 10.8912C35 11.5588 35 12.3725 35 14V30.1C35 33.0403 35 34.5104 34.4278 35.6334C33.9244 36.6213 33.1213 37.4244 32.1335 37.9278C31.0104 38.5 29.5403 38.5 26.6 38.5H15.4C12.4597 38.5 10.9896 38.5 9.86655 37.9278C8.8787 37.4244 8.07555 36.6213 7.57222 35.6334C7 34.5104 7 33.0403 7 30.1V14C7 12.3725 7 11.5588 7.17889 10.8912C7.66434 9.07947 9.07947 7.66434 10.8912 7.17889C11.5588 7 12.3725 7 14 7M21 29.75V19.25M15.75 24.5H26.25M16.8 10.5H25.2C26.1801 10.5 26.6701 10.5 27.0445 10.3093C27.3738 10.1415 27.6415 9.87377 27.8093 9.54448C28 9.17014 28 8.68009 28 7.7V6.3C28 5.31991 28 4.82986 27.8093 4.45552C27.6415 4.12623 27.3738 3.85852 27.0445 3.69074C26.6701 3.5 26.1801 3.5 25.2 3.5H16.8C15.8199 3.5 15.3299 3.5 14.9555 3.69074C14.6262 3.85852 14.3585 4.12623 14.1907 4.45552C14 4.82986 14 5.31991 14 6.3V7.7C14 8.68009 14 9.17014 14.1907 9.54448C14.3585 9.87377 14.6262 10.1415 14.9555 10.3093C15.3299 10.5 15.8199 10.5 16.8 10.5Z" stroke="black" stroke-width="2" stroke-linecap="round" stroke-linejoin="round"/>
</svg>
