<svg viewBox="0 0 30 31" fill="none" xmlns="http://www.w3.org/2000/svg">
<path d="M3.75 13.8835C3.75 13.1656 3.75 12.8066 3.84253 12.476C3.9245 12.1832 4.05921 11.9077 4.24003 11.6633C4.44417 11.3873 4.72753 11.1669 5.29424 10.7261L13.7721 4.13218C14.2113 3.79062 14.4309 3.61983 14.6733 3.55419C14.8873 3.49626 15.1127 3.49626 15.3267 3.55419C15.5691 3.61983 15.7887 3.79062 16.2279 4.13218L24.7058 10.7261C25.2725 11.1669 25.5558 11.3873 25.76 11.6633C25.9408 11.9077 26.0755 12.1832 26.1575 12.476C26.25 12.8066 26.25 13.1656 26.25 13.8835V22.9272C26.25 24.3273 26.25 25.0274 25.9775 25.5621C25.7378 26.0325 25.3554 26.415 24.885 26.6547C24.3502 26.9272 23.6501 26.9272 22.25 26.9272H7.75C6.34987 26.9272 5.6498 26.9272 5.11502 26.6547C4.64462 26.415 4.26217 26.0325 4.02248 25.5621C3.75 25.0274 3.75 24.3273 3.75 22.9272V13.8835Z"  stroke-width="3" stroke-linecap="round" stroke-linejoin="round"/>
</svg>
