<svg width="87" height="85" viewBox="0 0 87 85" fill="" xmlns="http://www.w3.org/2000/svg">
<path d="M29.7174 34.84C33.3652 34.5208 36.0636 31.305 35.7445 27.6571C35.4253 24.0093 32.2095 21.3109 28.5617 21.63C24.9138 21.9492 22.2154 25.165 22.5346 28.8129C22.8537 32.4607 26.0696 35.1591 29.7174 34.84Z" stroke="#3A3B41" stroke-width="3.5361" stroke-linecap="round" stroke-linejoin="round"/>
<path d="M46.0096 33.4146C45.7746 34.1043 45.7516 34.8485 45.9436 35.5514C46.1356 36.2543 46.5337 36.8835 47.0867 37.358L47.2304 37.4785C47.6755 37.8517 48.0428 38.3089 48.3112 38.8241C48.5795 39.3392 48.7437 39.9022 48.7943 40.4809C48.845 41.0596 48.781 41.6425 48.6062 42.1965C48.4314 42.7504 48.1491 43.2645 47.7755 43.7092C47.4023 44.1544 46.9451 44.5217 46.43 44.79C45.9148 45.0584 45.3518 45.2226 44.7731 45.2732C44.1945 45.3238 43.6115 45.2599 43.0576 45.0851C42.5036 44.9103 41.9896 44.628 41.5448 44.2543L41.4011 44.1338C40.8378 43.6716 40.149 43.3888 39.4235 43.3218C38.698 43.2548 37.969 43.4066 37.3306 43.7578C36.7038 44.0939 36.189 44.6059 35.8495 45.2308C35.51 45.8557 35.3606 46.5662 35.4198 47.2749L35.4525 47.6492C35.5547 48.817 35.1888 49.9776 34.4352 50.8756C33.6817 51.7737 32.6023 52.3356 31.4345 52.4378C30.2666 52.5399 29.106 52.174 28.208 51.4205C27.31 50.6669 26.7481 49.5875 26.6459 48.4197L26.6286 48.2215C26.5478 47.4943 26.2501 46.8082 25.7741 46.2524C25.2982 45.6966 24.6661 45.2968 23.9599 45.1051C23.2702 44.8701 22.526 44.8471 21.8231 45.0391C21.1202 45.2311 20.491 45.6292 20.0165 46.1822L19.896 46.3258C19.5228 46.771 19.0656 47.1383 18.5504 47.4067C18.0353 47.675 17.4723 47.8392 16.8936 47.8898C16.3149 47.9405 15.732 47.8765 15.178 47.7017C14.6241 47.5269 14.11 47.2446 13.6653 46.871C13.2201 46.4978 12.8528 46.0406 12.5845 45.5254C12.3161 45.0103 12.1519 44.4473 12.1013 43.8686C12.0507 43.2899 12.1146 42.707 12.2894 42.153C12.4642 41.5991 12.7465 41.085 13.1202 40.6403L13.2407 40.4966C13.7029 39.9333 13.9857 39.2445 14.0527 38.519C14.1197 37.7934 13.9679 37.0645 13.6167 36.4261C13.2806 35.7993 12.7686 35.2845 12.1437 34.945C11.5188 34.6055 10.8083 34.4561 10.0996 34.5153L9.7253 34.548C8.55747 34.6502 7.39688 34.2842 6.49886 33.5307C5.60083 32.7772 5.03893 31.6978 4.93675 30.5299C4.83458 29.3621 5.20051 28.2015 5.95405 27.3035C6.70758 26.4055 7.78699 25.8436 8.95482 25.7414L9.15297 25.7241C9.88021 25.6433 10.5663 25.3455 11.1221 24.8696C11.6779 24.3937 12.0777 23.7616 12.2694 23.0554C12.5044 22.3657 12.5274 21.6215 12.3354 20.9186C12.1434 20.2157 11.7453 19.5865 11.1923 19.112L11.0487 18.9914C10.6035 18.6183 10.2362 18.1611 9.96785 17.6459C9.69949 17.1308 9.5353 16.5678 9.48467 15.9891C9.43405 15.4104 9.49798 14.8275 9.6728 14.2735C9.84763 13.7196 10.1299 13.2055 10.5035 12.7608C10.8767 12.3156 11.3339 11.9483 11.8491 11.68C12.3642 11.4116 12.9272 11.2474 13.5059 11.1968C14.0846 11.1462 14.6675 11.2101 15.2215 11.3849C15.7754 11.5597 16.2895 11.842 16.7342 12.2157L16.8779 12.3362C17.4412 12.7984 18.13 13.0812 18.8555 13.1482C19.5811 13.2152 20.31 13.0633 20.9484 12.7122L21.1246 12.6968C21.7513 12.3607 22.2662 11.8487 22.6057 11.2238C22.9452 10.5989 23.0945 9.88836 23.0354 9.17965L23.0026 8.80537C22.9005 7.63755 23.2664 6.47696 24.0199 5.57893C24.7735 4.68091 25.8529 4.119 27.0207 4.01683C28.1885 3.91466 29.3491 4.28059 30.2471 5.03412C31.1452 5.78766 31.7071 6.86707 31.8092 8.0349L31.8266 8.23304C31.8914 8.94126 32.1619 9.61507 32.6047 10.1715C33.0476 10.728 33.6435 11.1428 34.3191 11.3649C35.0088 11.5999 35.753 11.6229 36.4559 11.4309C37.1588 11.2389 37.788 10.8408 38.2625 10.2878L38.3831 10.1441C38.7562 9.69897 39.2134 9.3317 39.7286 9.06334C40.2437 8.79498 40.8068 8.63079 41.3854 8.58016C41.9641 8.52954 42.547 8.59346 43.101 8.76829C43.6549 8.94312 44.169 9.22541 44.6137 9.59904C45.0589 9.97217 45.4262 10.4294 45.6945 10.9446C45.9629 11.4597 46.1271 12.0227 46.1777 12.6014C46.2283 13.18 46.1644 13.763 45.9896 14.317C45.8148 14.8709 45.5325 15.3849 45.1588 15.8297L45.0383 15.9734C44.5761 16.5367 44.2933 17.2255 44.2263 17.951C44.1593 18.6765 44.3112 19.4055 44.6623 20.0439L44.6777 20.2201C45.0138 20.8468 45.5258 21.3617 46.1507 21.7012C46.7756 22.0407 47.4861 22.19 48.1949 22.1309L48.5691 22.0981C49.737 21.9959 50.8975 22.3619 51.7956 23.1154C52.6936 23.8689 53.2555 24.9484 53.3577 26.1162C53.4598 27.284 53.0939 28.4446 52.3404 29.3426C51.5868 30.2406 50.5074 30.8026 49.3396 30.9047L49.1415 30.9221C48.4332 30.9869 47.7594 31.2573 47.203 31.7002C46.6465 32.1431 46.2317 32.739 46.0096 33.4146Z" stroke="#3A3B41" stroke-width="3.5361" stroke-linecap="round" stroke-linejoin="round"/>
<path d="M50.7097 68.3711C53.1508 68.3711 55.1298 66.3921 55.1298 63.951C55.1298 61.5098 53.1508 59.5308 50.7097 59.5308C48.2685 59.5308 46.2896 61.5098 46.2896 63.951C46.2896 66.3921 48.2685 68.3711 50.7097 68.3711Z" stroke="#3A3B41" stroke-width="3.5361" stroke-linecap="round" stroke-linejoin="round"/>
<path d="M61.6127 68.3711C61.4165 68.8155 61.358 69.3084 61.4447 69.7864C61.5313 70.2643 61.7592 70.7054 62.0989 71.0526L62.1873 71.141C62.4612 71.4147 62.6786 71.7397 62.8269 72.0974C62.9752 72.4551 63.0515 72.8386 63.0515 73.2259C63.0515 73.6131 62.9752 73.9965 62.8269 74.3543C62.6786 74.712 62.4612 75.037 62.1873 75.3107C61.9136 75.5847 61.5886 75.802 61.2309 75.9503C60.8731 76.0986 60.4897 76.1749 60.1024 76.1749C59.7152 76.1749 59.3317 76.0986 58.974 75.9503C58.6163 75.802 58.2913 75.5847 58.0176 75.3107L57.9292 75.2223C57.582 74.8826 57.1409 74.6548 56.663 74.5681C56.185 74.4814 55.6921 74.5399 55.2477 74.7361C54.8119 74.9228 54.4402 75.233 54.1785 75.6282C53.9167 76.0235 53.7762 76.4867 53.7743 76.9609V77.2113C53.7743 77.9929 53.4638 78.7424 52.9112 79.295C52.3586 79.8476 51.6091 80.1581 50.8276 80.1581C50.046 80.1581 49.2965 79.8476 48.7439 79.295C48.1913 78.7424 47.8808 77.9929 47.8808 77.2113V77.0787C47.8694 76.591 47.7115 76.1181 47.4278 75.7213C47.144 75.3245 46.7474 75.0223 46.2896 74.8539C45.8452 74.6578 45.3522 74.5993 44.8743 74.686C44.3963 74.7726 43.9553 75.0005 43.608 75.3401L43.5196 75.4286C43.2459 75.7025 42.921 75.9199 42.5632 76.0682C42.2055 76.2165 41.822 76.2928 41.4348 76.2928C41.0475 76.2928 40.6641 76.2165 40.3064 76.0682C39.9486 75.9199 39.6236 75.7025 39.35 75.4286C39.076 75.1549 38.8586 74.8299 38.7103 74.4722C38.5621 74.1144 38.4857 73.731 38.4857 73.3437C38.4857 72.9565 38.5621 72.573 38.7103 72.2153C38.8586 71.8576 39.076 71.5326 39.35 71.2589L39.4384 71.1705C39.778 70.8233 40.0059 70.3822 40.0926 69.9043C40.1792 69.4263 40.1207 68.9333 39.9246 68.489C39.7378 68.0532 39.4277 67.6815 39.0324 67.4197C38.6371 67.158 38.1739 67.0175 37.6998 67.0156H37.4493C36.6678 67.0156 35.9183 66.7051 35.3657 66.1525C34.813 65.5999 34.5026 64.8504 34.5026 64.0688C34.5026 63.2873 34.813 62.5378 35.3657 61.9852C35.9183 61.4325 36.6678 61.1221 37.4493 61.1221H37.5819C38.0696 61.1107 38.5426 60.9528 38.9393 60.669C39.3361 60.3853 39.6383 59.9887 39.8067 59.5308C40.0028 59.0864 40.0613 58.5935 39.9747 58.1155C39.888 57.6376 39.6602 57.1965 39.3205 56.8493L39.2321 56.7609C38.9581 56.4872 38.7408 56.1622 38.5925 55.8045C38.4442 55.4468 38.3679 55.0633 38.3679 54.6761C38.3679 54.2888 38.4442 53.9054 38.5925 53.5476C38.7408 53.1899 38.9581 52.8649 39.2321 52.5912C39.5058 52.3173 39.8308 52.0999 40.1885 51.9516C40.5462 51.8033 40.9297 51.727 41.3169 51.727C41.7042 51.727 42.0876 51.8033 42.4454 51.9516C42.8031 52.0999 43.1281 52.3173 43.4017 52.5912L43.4902 52.6796C43.8374 53.0193 44.2784 53.2472 44.7564 53.3338C45.2343 53.4205 45.7273 53.362 46.1717 53.1659H46.2896C46.7253 52.9791 47.097 52.669 47.3588 52.2737C47.6206 51.8784 47.761 51.4152 47.7629 50.9411V50.6906C47.7629 49.9091 48.0734 49.1595 48.626 48.6069C49.1786 48.0543 49.9282 47.7438 50.7097 47.7438C51.4912 47.7438 52.2407 48.0543 52.7934 48.6069C53.346 49.1595 53.6564 49.9091 53.6564 50.6906V50.8232C53.6583 51.2973 53.7988 51.7605 54.0606 52.1558C54.3224 52.5511 54.694 52.8612 55.1298 53.048C55.5742 53.2441 56.0672 53.3026 56.5451 53.216C57.0231 53.1293 57.4641 52.9014 57.8113 52.5618L57.8997 52.4734C58.1734 52.1994 58.4984 51.982 58.8561 51.8338C59.2139 51.6855 59.5973 51.6091 59.9846 51.6091C60.3718 51.6091 60.7553 51.6855 61.113 51.8338C61.4707 51.982 61.7957 52.1994 62.0694 52.4734C62.3434 52.7471 62.5607 53.072 62.709 53.4298C62.8573 53.7875 62.9336 54.171 62.9336 54.5582C62.9336 54.9454 62.8573 55.3289 62.709 55.6866C62.5607 56.0444 62.3434 56.3694 62.0694 56.643L61.981 56.7314C61.6413 57.0787 61.4135 57.5197 61.3268 57.9977C61.2402 58.4756 61.2987 58.9686 61.4948 59.413V59.5308C61.6816 59.9666 61.9917 60.3383 62.387 60.6001C62.7823 60.8618 63.2455 61.0023 63.7196 61.0042H63.9701C64.7516 61.0042 65.5011 61.3147 66.0537 61.8673C66.6063 62.4199 66.9168 63.1694 66.9168 63.951C66.9168 64.7325 66.6063 65.482 66.0537 66.0346C65.5011 66.5872 64.7516 66.8977 63.9701 66.8977H63.8374C63.3633 66.8996 62.9001 67.0401 62.5048 67.3019C62.1095 67.5637 61.7994 67.9353 61.6127 68.3711Z" stroke="#3A3B41" stroke-width="3.5361" stroke-linecap="round" stroke-linejoin="round"/>
<path d="M68.8465 41.0704C70.792 41.2406 72.5071 39.8015 72.6773 37.856C72.8475 35.9105 71.4084 34.1954 69.4629 34.0251C67.5174 33.8549 65.8022 35.2941 65.632 37.2396C65.4618 39.1851 66.901 40.9002 68.8465 41.0704Z" stroke="#3A3B41" stroke-width="3.5361" stroke-linecap="round" stroke-linejoin="round"/>
<path d="M77.5357 41.8306C77.3484 42.1711 77.2674 42.5599 77.3031 42.9469C77.3388 43.3338 77.4897 43.7012 77.7362 44.0016L77.8005 44.0782C77.9997 44.3154 78.1503 44.5896 78.2435 44.885C78.3368 45.1805 78.3709 45.4914 78.3439 45.8C78.3169 46.1086 78.2293 46.4089 78.0862 46.6836C77.943 46.9584 77.7472 47.2022 77.5097 47.4012C77.2725 47.6005 76.9984 47.7511 76.7029 47.8443C76.4075 47.9376 76.0966 47.9716 75.788 47.9446C75.4793 47.9176 75.1791 47.8301 74.9043 47.687C74.6296 47.5438 74.3857 47.3479 74.1867 47.1105L74.1224 47.0339C73.8694 46.739 73.5338 46.5267 73.1589 46.4243C72.784 46.3219 72.3871 46.3341 72.0192 46.4594C71.6589 46.5779 71.3411 46.7991 71.1049 47.0959C70.8687 47.3927 70.7245 47.7521 70.6899 48.1298L70.6724 48.3294C70.618 48.9522 70.3183 49.5279 69.8393 49.9298C69.3604 50.3317 68.7414 50.5269 68.1186 50.4724C67.4957 50.4179 66.92 50.1182 66.5182 49.6392C66.1163 49.1603 65.9211 48.5413 65.9756 47.9185L65.9848 47.8128C66.0098 47.4233 65.9169 47.0354 65.7184 46.6994C65.5199 46.3634 65.2249 46.0949 64.8718 45.9288C64.5313 45.7415 64.1425 45.6605 63.7556 45.6962C63.3686 45.732 63.0013 45.8828 62.7008 46.1293L62.6242 46.1936C62.387 46.3929 62.1129 46.5434 61.8174 46.6367C61.522 46.7299 61.2111 46.764 60.9025 46.737C60.5938 46.71 60.2936 46.6224 60.0188 46.4793C59.7441 46.3362 59.5002 46.1403 59.3012 45.9029C59.1019 45.6657 58.9514 45.3915 58.8581 45.0961C58.7649 44.8006 58.7308 44.4897 58.7578 44.1811C58.7848 43.8725 58.8724 43.5722 59.0155 43.2974C59.1586 43.0227 59.3545 42.7788 59.5919 42.5798L59.6685 42.5155C59.9635 42.2625 60.1758 41.9269 60.2782 41.552C60.3806 41.1772 60.3683 40.7802 60.243 40.4124C60.1245 40.0521 59.9033 39.7342 59.6065 39.4981C59.3097 39.2619 58.9504 39.1176 58.5727 39.083L58.3731 39.0656C57.7502 39.0111 57.1745 38.7114 56.7726 38.2325C56.3708 37.7535 56.1756 37.1345 56.2301 36.5117C56.2846 35.8888 56.5843 35.3132 57.0632 34.9113C57.5422 34.5094 58.1611 34.3142 58.784 34.3687L58.8897 34.378C59.2791 34.4029 59.667 34.3101 60.003 34.1116C60.339 33.9131 60.6076 33.6181 60.7737 33.2649C60.961 32.9245 61.042 32.5357 61.0062 32.1487C60.9705 31.7618 60.8196 31.3944 60.5731 31.094L60.5089 31.0174C60.3096 30.7801 60.159 30.506 60.0658 30.2106C59.9726 29.9151 59.9385 29.6042 59.9655 29.2956C59.9925 28.987 60.08 28.6867 60.2231 28.4119C60.3663 28.1372 60.5622 27.8933 60.7996 27.6943C61.0368 27.4951 61.3109 27.3445 61.6064 27.2513C61.9018 27.158 62.2127 27.1239 62.5214 27.1509C62.83 27.1779 63.1302 27.2655 63.405 27.4086C63.6798 27.5517 63.9236 27.7476 64.1226 27.9851L64.1869 28.0617C64.44 28.3566 64.7756 28.5689 65.1504 28.6713C65.5253 28.7737 65.9222 28.7615 66.2901 28.6361L66.384 28.6443C66.7443 28.5259 67.0621 28.3046 67.2983 28.0079C67.5345 27.7111 67.6788 27.3517 67.7133 26.974L67.7308 26.7744C67.7853 26.1516 68.085 25.5759 68.5639 25.174C69.0429 24.7721 69.6618 24.5769 70.2847 24.6314C70.9075 24.6859 71.4832 24.9856 71.8851 25.4646C72.287 25.9435 72.4821 26.5625 72.4277 27.1853L72.4184 27.291C72.3869 27.669 72.4665 28.0479 72.6476 28.3812C72.8287 28.7145 73.1032 28.9876 73.4375 29.1668C73.778 29.3541 74.1668 29.4351 74.5537 29.3993C74.9407 29.3636 75.3081 29.2128 75.6085 28.9663L75.6851 28.902C75.9223 28.7027 76.1965 28.5522 76.4919 28.4589C76.7873 28.3657 77.0982 28.3316 77.4069 28.3586C77.7155 28.3856 78.0158 28.4732 78.2905 28.6163C78.5653 28.7594 78.8091 28.9553 79.0081 29.1927C79.2074 29.4299 79.3579 29.7041 79.4512 29.9995C79.5444 30.2949 79.5785 30.6059 79.5515 30.9145C79.5245 31.2231 79.4369 31.5234 79.2938 31.7981C79.1507 32.0729 78.9548 32.3167 78.7174 32.5157L78.6408 32.58C78.3459 32.8331 78.1335 33.1687 78.0311 33.5435C77.9287 33.9184 77.941 34.3154 78.0663 34.6832L78.0581 34.7771C78.1766 35.1375 78.3978 35.4553 78.6946 35.6915C78.9913 35.9276 79.3507 36.0719 79.7284 36.1065L79.928 36.1239C80.5509 36.1784 81.1266 36.4781 81.5285 36.9571C81.9303 37.436 82.1255 38.055 82.071 38.6778C82.0165 39.3007 81.7168 39.8763 81.2379 40.2782C80.7589 40.6801 80.14 40.8753 79.5171 40.8208L79.4114 40.8115C79.0335 40.78 78.6545 40.8597 78.3212 41.0407C77.9879 41.2218 77.7149 41.4964 77.5357 41.8306Z" stroke="#3A3B41" stroke-width="3.5361" stroke-linecap="round" stroke-linejoin="round"/>
</svg>
