<svg viewBox="0 0 30 30" fill="none" xmlns="http://www.w3.org/2000/svg">
<path d="M11.7439 24.2139L12.4745 25.8569C12.6917 26.346 13.0461 26.7616 13.4948 27.0533C13.9434 27.3449 14.4671 27.5001 15.0023 27.5C15.5374 27.5001 16.0611 27.3449 16.5098 27.0533C16.9584 26.7616 17.3129 26.346 17.53 25.8569L18.2606 24.2139C18.5206 23.6309 18.9581 23.1448 19.5106 22.825C20.0666 22.5043 20.7098 22.3677 21.3481 22.4347L23.1356 22.625C23.6677 22.6813 24.2047 22.582 24.6814 22.3392C25.1582 22.0963 25.5543 21.7204 25.8217 21.2569C26.0894 20.7938 26.217 20.2628 26.1889 19.7286C26.1608 19.1944 25.9782 18.6798 25.6634 18.2472L24.605 16.7931C24.2282 16.2714 24.0268 15.6435 24.03 15C24.0299 14.3582 24.2332 13.7329 24.6106 13.2139L25.6689 11.7597C25.9838 11.3272 26.1663 10.8126 26.1944 10.2783C26.2225 9.7441 26.095 9.21318 25.8273 8.75C25.5599 8.28654 25.1638 7.91061 24.687 7.66778C24.2102 7.42496 23.6732 7.32566 23.1411 7.38194L21.3536 7.57222C20.7153 7.63926 20.0721 7.50265 19.5161 7.18194C18.9626 6.86032 18.525 6.3717 18.2661 5.78611L17.53 4.14306C17.3129 3.65396 16.9584 3.23839 16.5098 2.94675C16.0611 2.6551 15.5374 2.49991 15.0023 2.5C14.4671 2.49991 13.9434 2.6551 13.4948 2.94675C13.0461 3.23839 12.6917 3.65396 12.4745 4.14306L11.7439 5.78611C11.4851 6.3717 11.0475 6.86032 10.4939 7.18194C9.93794 7.50265 9.29476 7.63926 8.65643 7.57222L6.86337 7.38194C6.33128 7.32566 5.79429 7.42496 5.31751 7.66778C4.84073 7.91061 4.44464 8.28654 4.17726 8.75C3.90953 9.21318 3.78199 9.7441 3.81009 10.2783C3.8382 10.8126 4.02075 11.3272 4.33559 11.7597L5.39392 13.2139C5.77135 13.7329 5.9746 14.3582 5.97448 15C5.9746 15.6418 5.77135 16.2671 5.39392 16.7861L4.33559 18.2403C4.02075 18.6728 3.8382 19.1874 3.81009 19.7217C3.78199 20.2559 3.90953 20.7868 4.17726 21.25C4.4449 21.7132 4.84104 22.0889 5.31776 22.3317C5.79447 22.5745 6.33132 22.674 6.86337 22.6181L8.65087 22.4278C9.28921 22.3607 9.93239 22.4973 10.4884 22.8181C11.044 23.1388 11.4836 23.6275 11.7439 24.2139Z" stroke-width="2" stroke-linecap="round" stroke-linejoin="round"/>
<path d="M15 18.75C17.0711 18.75 18.75 17.0711 18.75 15C18.75 12.9289 17.0711 11.25 15 11.25C12.929 11.25 11.25 12.9289 11.25 15C11.25 17.0711 12.929 18.75 15 18.75Z" stroke-width="2" stroke-linecap="round" stroke-linejoin="round"/>
</svg>
