<svg width="" height="" viewBox="0 0 1940 2324"  xmlns="http://www.w3.org/2000/svg">
<path stroke="" d="M1021.84 973.683C1025.85 975.556 1030.13 976.626 1034.41 976.626C1041.1 976.626 1047.52 974.486 1052.87 969.938C1086.04 942.921 1145.42 846.355 1204.54 663.121C1263.65 479.619 1298.96 283.545 1298.96 138.83C1298.96 62.3264 1236.64 0 1160.13 0H1034.14C1018.09 0 1004.98 13.1073 1004.98 29.157V947.201C1004.98 958.436 1011.4 968.868 1021.84 973.683ZM1063.3 58.314H1160.13C1204.54 58.314 1240.38 94.4259 1240.38 138.563C1240.38 277.66 1206.14 466.779 1148.63 644.931C1117.07 742.835 1087.11 810.243 1063.03 854.648V58.314H1063.3Z" />
<path stroke="" d="M905.731 0H779.74C703.237 0 640.91 62.3264 640.91 138.83C640.91 283.545 676.22 479.619 735.336 663.121C794.453 846.355 854.104 942.921 887.006 969.938C892.356 974.218 898.776 976.626 905.463 976.626C909.743 976.626 914.023 975.823 918.035 973.683C928.2 968.868 934.62 958.704 934.62 947.201V29.157C934.888 13.1073 921.78 0 905.731 0Z" />
<path stroke="" d="M1801.03 0H1496.36C1419.85 0 1357.53 62.3264 1357.53 138.83C1357.53 296.117 1316.6 514.661 1251.06 708.595C1153.96 995.083 1073.71 1037.88 1034.39 1037.88C1018.34 1037.88 1005.23 1050.99 1005.23 1067.04V2294.84C1005.23 2310.89 1018.34 2324 1034.39 2324C1261.5 2324 1521.23 1956.73 1622.61 1798.91C1809.59 1507.34 1939.86 1187.14 1939.86 1020.76V138.83C1939.6 62.3264 1877.54 0 1801.03 0ZM1881.28 1020.76C1881.28 1337.48 1378.66 2210.05 1063.55 2263.01V1092.72C1151.02 1071.05 1230.73 950.946 1306.43 727.32C1374.11 527.768 1416.11 302.27 1416.11 138.83C1416.11 94.4258 1452.22 58.5815 1496.36 58.5815H1801.03C1845.44 58.5815 1881.28 94.6933 1881.28 138.83V1020.76Z" />
<path stroke="" d="M905.739 1037.88C866.417 1037.88 786.169 995.083 689.068 708.595C623.264 514.661 582.605 296.385 582.605 138.83C582.605 62.3264 520.278 0 443.775 0H138.83C62.3263 0 0 62.3264 0 138.83V1020.76C0 1187.14 130.538 1507.34 317.249 1798.91C418.363 1956.73 678.101 2324 905.472 2324C921.522 2324 934.629 2310.89 934.629 2294.84V1067.04C934.896 1050.99 921.789 1037.88 905.739 1037.88Z" />
</svg>
