<svg width="19" height="20" viewBox="0 0 19 20" fill="none" xmlns="http://www.w3.org/2000/svg">
<path d="M13.1665 1.66797V10.8346M17.3332 8.16797V4.33464C17.3332 3.40121 17.3332 2.9345 17.1516 2.57798C16.9918 2.26438 16.7368 2.00941 16.4232 1.84962C16.0667 1.66797 15.6 1.66797 14.6665 1.66797H5.76489C4.54699 1.66797 3.93804 1.66797 3.4462 1.89083C3.01271 2.08725 2.6443 2.40332 2.38425 2.8019C2.08919 3.25413 1.99659 3.856 1.8114 5.05974L1.37551 7.89307C1.13125 9.48073 1.00912 10.2746 1.24472 10.8922C1.4515 11.4344 1.84042 11.8877 2.34482 12.1745C2.91949 12.5013 3.72266 12.5013 5.32899 12.5013H5.99988C6.46659 12.5013 6.69995 12.5013 6.87821 12.5921C7.03501 12.672 7.16249 12.7995 7.24239 12.9563C7.33321 13.1346 7.33321 13.3679 7.33321 13.8346V16.2798C7.33321 17.4146 8.25321 18.3346 9.38808 18.3346C9.65877 18.3346 9.90406 18.1752 10.014 17.9279L12.8146 11.6265C12.942 11.3398 13.0057 11.1965 13.1064 11.0915C13.1954 10.9986 13.3047 10.9276 13.4257 10.884C13.5626 10.8346 13.7194 10.8346 14.033 10.8346H14.6665C15.6 10.8346 16.0667 10.8346 16.4232 10.653C16.7368 10.4932 16.9918 10.2382 17.1516 9.92462C17.3332 9.5681 17.3332 9.10139 17.3332 8.16797Z" stroke="#7D7E86" stroke-width="2" stroke-linecap="round" stroke-linejoin="round"/>
</svg>
