<svg width="19" height="20" viewBox="0 0 19 20" fill="none" xmlns="http://www.w3.org/2000/svg">
<path d="M5.83366 18.3346V9.16797M1.66699 10.8346V16.668C1.66699 17.5884 2.41318 18.3346 3.33366 18.3346H14.5222C15.7561 18.3346 16.8055 17.4344 16.9931 16.2148L17.8906 10.3814C18.1235 8.86705 16.9518 7.5013 15.4196 7.5013H12.5003C12.0401 7.5013 11.667 7.12821 11.667 6.66797V3.72283C11.667 2.58796 10.747 1.66797 9.61213 1.66797C9.34144 1.66797 9.09614 1.82738 8.98621 2.07474L6.05361 8.67308C5.91986 8.97402 5.62142 9.16797 5.2921 9.16797H3.33366C2.41318 9.16797 1.66699 9.91416 1.66699 10.8346Z" stroke="#7D7E86" stroke-width="2" stroke-linecap="round" stroke-linejoin="round"/>
</svg>
